<mxfile host="65bd71144e">
    <diagram id="wqJ30NkVVo1CTVTw8AjE" name="Page-1">
        <mxGraphModel dx="846" dy="648" grid="1" gridSize="10" guides="1" tooltips="1" connect="1" arrows="1" fold="1" page="1" pageScale="1" pageWidth="850" pageHeight="1100" math="0" shadow="0">
            <root>
                <mxCell id="0"/>
                <mxCell id="1" parent="0"/>
                <mxCell id="33" value="" style="group" parent="1" vertex="1" connectable="0">
                    <mxGeometry x="40" y="170" width="800" height="748" as="geometry"/>
                </mxCell>
                <mxCell id="2" value="Xử lý tài liệu" style="ellipse;whiteSpace=wrap;html=1;" parent="33" vertex="1">
                    <mxGeometry y="30" width="120" height="80" as="geometry"/>
                </mxCell>
                <mxCell id="3" value="Chuẩn hoá lại tài liệu" style="rounded=0;whiteSpace=wrap;html=1;" parent="33" vertex="1">
                    <mxGeometry x="210" y="15" width="120" height="60" as="geometry"/>
                </mxCell>
                <mxCell id="4" value="Tạo bản tóm tắt cho tài liệu" style="rounded=0;whiteSpace=wrap;html=1;" parent="33" vertex="1">
                    <mxGeometry x="210" y="120" width="120" height="60" as="geometry"/>
                </mxCell>
                <mxCell id="5" value="" style="endArrow=classic;html=1;exitX=1;exitY=0.5;exitDx=0;exitDy=0;entryX=0;entryY=0.5;entryDx=0;entryDy=0;" parent="33" source="2" target="3" edge="1">
                    <mxGeometry width="50" height="50" relative="1" as="geometry">
                        <mxPoint x="130" y="70" as="sourcePoint"/>
                        <mxPoint x="200" y="70" as="targetPoint"/>
                    </mxGeometry>
                </mxCell>
                <mxCell id="6" value="" style="endArrow=classic;html=1;exitX=1;exitY=0.5;exitDx=0;exitDy=0;entryX=0;entryY=0.5;entryDx=0;entryDy=0;" parent="33" source="2" target="4" edge="1">
                    <mxGeometry width="50" height="50" relative="1" as="geometry">
                        <mxPoint x="140" y="80" as="sourcePoint"/>
                        <mxPoint x="190" y="150" as="targetPoint"/>
                    </mxGeometry>
                </mxCell>
                <mxCell id="8" value="- Xử lý các từ ngữ bị confuse: các band còn lại, đến band 4...&lt;div&gt;- Xử lý lưu đồ, biểu đồ, bảng&lt;/div&gt;&lt;div&gt;- Gắn tags, ngày tạo, version...&lt;/div&gt;" style="rounded=0;whiteSpace=wrap;html=1;align=left;" parent="33" vertex="1">
                    <mxGeometry x="350" width="262.5" height="90" as="geometry"/>
                </mxCell>
                <mxCell id="9" value="" style="endArrow=classic;html=1;entryX=0;entryY=0.5;entryDx=0;entryDy=0;exitX=1;exitY=0.5;exitDx=0;exitDy=0;" parent="33" source="3" target="8" edge="1">
                    <mxGeometry width="50" height="50" relative="1" as="geometry">
                        <mxPoint x="330" y="70" as="sourcePoint"/>
                        <mxPoint x="380" y="20" as="targetPoint"/>
                    </mxGeometry>
                </mxCell>
                <mxCell id="10" value="Datasets" style="shape=datastore;whiteSpace=wrap;html=1;" parent="33" vertex="1">
                    <mxGeometry x="652.5" y="10" width="131.43" height="160" as="geometry"/>
                </mxCell>
                <mxCell id="11" value="" style="endArrow=classic;html=1;entryX=-0.012;entryY=0.875;entryDx=0;entryDy=0;exitX=1;exitY=0.5;exitDx=0;exitDy=0;entryPerimeter=0;" parent="33" source="4" target="10" edge="1">
                    <mxGeometry width="50" height="50" relative="1" as="geometry">
                        <mxPoint x="380" y="190" as="sourcePoint"/>
                        <mxPoint x="650" y="148" as="targetPoint"/>
                    </mxGeometry>
                </mxCell>
                <mxCell id="12" value="" style="endArrow=classic;html=1;exitX=1;exitY=0.5;exitDx=0;exitDy=0;entryX=0;entryY=0.5;entryDx=0;entryDy=0;" parent="33" source="8" target="10" edge="1">
                    <mxGeometry width="50" height="50" relative="1" as="geometry">
                        <mxPoint x="405" y="64" as="sourcePoint"/>
                        <mxPoint x="540" y="156" as="targetPoint"/>
                    </mxGeometry>
                </mxCell>
                <mxCell id="13" value="Datasets" style="swimlane;startSize=20;horizontal=0;childLayout=treeLayout;horizontalTree=1;sortEdges=1;resizable=0;containerType=tree;fontSize=12;" parent="33" vertex="1">
                    <mxGeometry x="160" y="210" width="500" height="286" as="geometry"/>
                </mxCell>
                <mxCell id="14" value="Root" style="whiteSpace=wrap;html=1;" parent="13" vertex="1">
                    <mxGeometry x="40" y="158" width="100" height="40" as="geometry"/>
                </mxCell>
                <mxCell id="15" value="Nhân sự" style="whiteSpace=wrap;html=1;" parent="13" vertex="1">
                    <mxGeometry x="190" y="90" width="100" height="40" as="geometry"/>
                </mxCell>
                <mxCell id="16" value="" style="edgeStyle=elbowEdgeStyle;elbow=horizontal;html=1;rounded=1;curved=0;sourcePerimeterSpacing=0;targetPerimeterSpacing=0;startSize=6;endSize=6;" parent="13" source="14" target="15" edge="1">
                    <mxGeometry relative="1" as="geometry"/>
                </mxCell>
                <mxCell id="17" value="Pháp chế..." style="whiteSpace=wrap;html=1;" parent="13" vertex="1">
                    <mxGeometry x="190" y="226" width="100" height="40" as="geometry"/>
                </mxCell>
                <mxCell id="18" value="" style="edgeStyle=elbowEdgeStyle;elbow=horizontal;html=1;rounded=1;curved=0;sourcePerimeterSpacing=0;targetPerimeterSpacing=0;startSize=6;endSize=6;" parent="13" source="14" target="17" edge="1">
                    <mxGeometry relative="1" as="geometry"/>
                </mxCell>
                <mxCell id="19" value="" style="edgeStyle=elbowEdgeStyle;elbow=horizontal;html=1;rounded=1;curved=0;sourcePerimeterSpacing=0;targetPerimeterSpacing=0;startSize=6;endSize=6;" parent="13" source="15" target="20" edge="1">
                    <mxGeometry relative="1" as="geometry">
                        <mxPoint x="780" y="-92" as="sourcePoint"/>
                    </mxGeometry>
                </mxCell>
                <mxCell id="20" value="Tài liệu 1:&lt;br&gt;&lt;div style=&quot;text-align: left;&quot;&gt;- Bản tóm tắt&lt;/div&gt;&lt;div style=&quot;text-align: left;&quot;&gt;- Tags, ngày tạo, version&lt;br&gt;&lt;/div&gt;&lt;div style=&quot;text-align: left;&quot;&gt;- Nội dung&lt;/div&gt;" style="whiteSpace=wrap;html=1;" parent="13" vertex="1">
                    <mxGeometry x="340" y="20" width="140" height="70" as="geometry"/>
                </mxCell>
                <mxCell id="31" value="Tài liệu n:&lt;br&gt;&lt;div style=&quot;text-align: left;&quot;&gt;- Bản tóm tắt&lt;/div&gt;&lt;div style=&quot;text-align: left;&quot;&gt;- Tags, ngày tạo, version&lt;br&gt;&lt;/div&gt;&lt;div style=&quot;text-align: left;&quot;&gt;- Nội dung&lt;/div&gt;" style="whiteSpace=wrap;html=1;" parent="13" vertex="1">
                    <mxGeometry x="340" y="130" width="140" height="70" as="geometry"/>
                </mxCell>
                <mxCell id="32" value="" style="edgeStyle=elbowEdgeStyle;elbow=horizontal;html=1;rounded=1;curved=0;sourcePerimeterSpacing=0;targetPerimeterSpacing=0;startSize=6;endSize=6;entryX=0;entryY=0.25;entryDx=0;entryDy=0;exitX=1;exitY=0.625;exitDx=0;exitDy=0;exitPerimeter=0;" parent="13" source="15" target="31" edge="1">
                    <mxGeometry relative="1" as="geometry">
                        <mxPoint x="300" y="4" as="sourcePoint"/>
                        <mxPoint x="350" y="4" as="targetPoint"/>
                    </mxGeometry>
                </mxCell>
                <mxCell id="24" value="Embedding dữ liệu&lt;br&gt;Sử dụng các model (gemma, bge..)" style="rounded=1;whiteSpace=wrap;html=1;" parent="33" vertex="1">
                    <mxGeometry x="640" y="520" width="160" height="80" as="geometry"/>
                </mxCell>
                <mxCell id="25" value="" style="endArrow=classic;html=1;entryX=0.5;entryY=0;entryDx=0;entryDy=0;exitX=0.5;exitY=1;exitDx=0;exitDy=0;" parent="33" source="10" target="24" edge="1">
                    <mxGeometry width="50" height="50" relative="1" as="geometry">
                        <mxPoint x="707.5" y="190" as="sourcePoint"/>
                        <mxPoint x="760" y="270" as="targetPoint"/>
                    </mxGeometry>
                </mxCell>
                <mxCell id="26" value="Vector embedding" style="shape=datastore;whiteSpace=wrap;html=1;" parent="33" vertex="1">
                    <mxGeometry x="666" y="640" width="108" height="108" as="geometry"/>
                </mxCell>
                <mxCell id="27" value="" style="endArrow=classic;html=1;entryX=0.5;entryY=0;entryDx=0;entryDy=0;exitX=0.5;exitY=1;exitDx=0;exitDy=0;" parent="33" source="24" target="26" edge="1">
                    <mxGeometry width="50" height="50" relative="1" as="geometry">
                        <mxPoint x="680" y="610" as="sourcePoint"/>
                        <mxPoint x="730" y="560" as="targetPoint"/>
                    </mxGeometry>
                </mxCell>
            </root>
        </mxGraphModel>
    </diagram>
</mxfile>